<svg xmlns="http://www.w3.org/2000/svg" width="6" height="12" viewBox="0 0 6 12">
  <metadata><?xpacket begin="﻿" id="W5M0MpCehiHzreSzNTczkc9d"?>
<x:xmpmeta xmlns:x="adobe:ns:meta/" x:xmptk="Adobe XMP Core 5.6-c138 79.159824, 2016/09/14-01:09:01        ">
   <rdf:RDF xmlns:rdf="http://www.w3.org/1999/02/22-rdf-syntax-ns#">
      <rdf:Description rdf:about=""/>
   </rdf:RDF>
</x:xmpmeta>
                                                                                                    
                                                                                                    
                                                                                                    
                                                                                                    
                                                                                                    
                                                                                                    
                                                                                                    
                                                                                                    
                                                                                                    
                                                                                                    
                                                                                                    
                                                                                                    
                                                                                                    
                                                                                                    
                                                                                                    
                                                                                                    
                                                                                                    
                                                                                                    
                                                                                                    
                                                                                                    
                           
<?xpacket end="w"?></metadata>
<defs>
    <style>
      .cls-1 {
        fill: #1e1f26;
        fill-rule: evenodd;
      }
    </style>
  </defs>
  <path id="Shape_6_copy_2" data-name="Shape 6 copy 2" class="cls-1" d="M993.987,1548.82a1.411,1.411,0,1,0-1.469-1.41A1.441,1.441,0,0,0,993.987,1548.82Zm2.993,4.22-1.19-3.54a0.519,0.519,0,0,0-.484-0.34h-2.638a0.519,0.519,0,0,0-.483.34l-1.19,3.54a0.326,0.326,0,0,0,.04.3,0.337,0.337,0,0,0,.277.12h0.3a0.535,0.535,0,0,0,.484-0.34l0.338-1.01v5.24a0.665,0.665,0,0,0,.678.65h0.048a0.664,0.664,0,0,0,.678-0.65v-3.42h0.289v3.42a0.664,0.664,0,0,0,.678.65h0.047a0.664,0.664,0,0,0,.678-0.65v-5.24l0.34,1.01a0.533,0.533,0,0,0,.483.34h0.305a0.337,0.337,0,0,0,.277-0.12A0.323,0.323,0,0,0,996.98,1553.04Z" transform="translate(-991 -1546)"/>
</svg>
