<svg xmlns="http://www.w3.org/2000/svg" width="7" height="18" viewBox="0 0 7 18">
  <metadata><?xpacket begin="﻿" id="W5M0MpCehiHzreSzNTczkc9d"?>
<x:xmpmeta xmlns:x="adobe:ns:meta/" x:xmptk="Adobe XMP Core 5.6-c138 79.159824, 2016/09/14-01:09:01        ">
   <rdf:RDF xmlns:rdf="http://www.w3.org/1999/02/22-rdf-syntax-ns#">
      <rdf:Description rdf:about=""/>
   </rdf:RDF>
</x:xmpmeta>
                                                                                                    
                                                                                                    
                                                                                                    
                                                                                                    
                                                                                                    
                                                                                                    
                                                                                                    
                                                                                                    
                                                                                                    
                                                                                                    
                                                                                                    
                                                                                                    
                                                                                                    
                                                                                                    
                                                                                                    
                                                                                                    
                                                                                                    
                                                                                                    
                                                                                                    
                                                                                                    
                           
<?xpacket end="w"?></metadata>
<defs>
    <style>
      .cls-1 {
        fill: #1e1f26;
        fill-rule: evenodd;
      }
    </style>
  </defs>
  <path id="Shape_5_copy_2" data-name="Shape 5 copy 2" class="cls-1" d="M965.489,1544.69a2.074,2.074,0,0,0-1.419-.45h-3.1a2.327,2.327,0,0,0-1.419.41,1.489,1.489,0,0,0-.549,1.28v4.65a0.6,0.6,0,0,0,.889.54,0.577,0.577,0,0,0,.284-0.54v-4.24h0.378v10.8a0.78,0.78,0,1,0,1.552,0v-5.33H962.9v5.33a0.78,0.78,0,1,0,1.551,0v-10.8h0.379v3.95a0.753,0.753,0,0,0,.284.66,0.461,0.461,0,0,0,.586,0,0.735,0.735,0,0,0,.3-0.66v-4.32A1.622,1.622,0,0,0,965.489,1544.69Zm-3.027-1.19a1.471,1.471,0,0,0,1.135-.52,1.777,1.777,0,0,0,.473-1.25,1.756,1.756,0,0,0-.473-1.22,1.518,1.518,0,0,0-2.27,0,1.787,1.787,0,0,0-.473,1.24,1.746,1.746,0,0,0,.473,1.23A1.471,1.471,0,0,0,962.462,1543.5Z" transform="translate(-959 -1540)"/>
</svg>
